# xmcd CD database file
#
# Track frame offsets:
#	150
#	18617
#	37884
#	54235
#	71281
#	91537
#	109890
#	128424
#	145825
#	163587
#	181159
#
# Disc length: 2701 seconds
#
# Revision: 2
# Processed by: cddbd v1.5.1PL0 Copyright (c) Steve Scherf et al.
# Submitted via: jetAudio 5
#
DISCID=7e0a8b0b
DTITLE=O-Zone - DiscO-Zone
DYEAR=1900
DGENRE=
TTITLE0=Fiesta de la noche
TTITLE1=De ce plang chitarele
TTITLE2=Dragosta din tei
TTITLE3=Printre nori
TTITLE4=Oriunde ai fi
TTITLE5=Numai Tu
TTITLE6=Dar Unde Esti
TTITLE7=Despre Tine
TTITLE8=Sarbatoarea noptilor de vara
TTITLE9=Nu mas las de limba noastra
TTITLE10=Crede-ma
EXTD=
EXTT0=
EXTT1=
EXTT2=
EXTT3=
EXTT4=
EXTT5=
EXTT6=
EXTT7=
EXTT8=
EXTT9=
EXTT10=
PLAYORDER=
